<svg width="87" height="120" viewBox="0 0 87 120" fill="none" xmlns="http://www.w3.org/2000/svg">
<g clip-path="url(#clip0_103_74)">
<path d="M56.8867 43.3436L44.8857 54.5176L33.7457 32.0383L39.5006 19.113C40.9551 16.5348 43.3339 16.5007 44.7884 19.113L56.8867 43.3436Z" fill="#FFA000"/>
<path d="M44.8905 54.5127L0 96.2656L33.7506 32.0383L44.8905 54.5127Z" fill="#F57F17"/>
<path d="M70.0454 26.2543C72.1956 24.2063 74.409 24.897 74.9684 27.8061L86.6386 95.7013L47.9309 118.94C46.5737 119.698 42.9739 119.995 42.9739 119.995C42.9739 119.995 39.7 119.596 38.4449 118.905L0 96.2656L70.0454 26.2543Z" fill="#FFCA28"/>
<path d="M33.7506 32.0383L0 96.2656L15.0413 2.38851C15.6056 -0.520521 17.2547 -0.817262 18.7433 1.76098L33.7506 32.0383Z" fill="#FFA000"/>
</g>
<defs>
<clipPath id="clip0_103_74">
<rect width="86.6386" height="120" fill="white"/>
</clipPath>
</defs>
</svg>
